<?xml version="1.0" encoding="UTF-8" standalone="no"?>
<!-- Created with Inkscape (http://www.inkscape.org/) -->

<svg
   version="1.1"
   id="svg1"
   width="1600"
   height="1600"
   viewBox="0 0 1600 1600"
   sodipodi:docname="Logo - Sin fondo.svg"
   inkscape:version="1.4.2 (f4327f4, 2025-05-13)"
   xmlns:inkscape="http://www.inkscape.org/namespaces/inkscape"
   xmlns:sodipodi="http://sodipodi.sourceforge.net/DTD/sodipodi-0.dtd"
   xmlns="http://www.w3.org/2000/svg"
   xmlns:svg="http://www.w3.org/2000/svg">
  <defs
     id="defs1" />
  <sodipodi:namedview
     id="namedview1"
     pagecolor="#505050"
     bordercolor="#eeeeee"
     borderopacity="1"
     inkscape:showpageshadow="0"
     inkscape:pageopacity="0"
     inkscape:pagecheckerboard="0"
     inkscape:deskcolor="#505050"
     inkscape:zoom="0.23997436"
     inkscape:cx="560.47654"
     inkscape:cy="893.84548"
     inkscape:window-width="1304"
     inkscape:window-height="745"
     inkscape:window-x="54"
     inkscape:window-y="-8"
     inkscape:window-maximized="1"
     inkscape:current-layer="g1" />
  <g
     inkscape:groupmode="layer"
     inkscape:label="Image"
     id="g1">
    <path
       style="fill:#000000"
       d="m 583.74639,1157.4945 c 2.65762,-5.1071 1.08574,-18.0149 -2.36538,-19.4238 -1.88889,-0.7712 -14.38854,-1.8353 -49.14486,-4.1837 -6.34965,-0.4291 -10.97718,-1.3538 -11.26876,-2.2518 -0.94034,-2.8963 -1.6627,-322.66498 -0.7324,-324.21308 0.69599,-1.1582 18.02273,-1.4654 68.13391,-1.2082 66.42202,0.341 67.216,0.3768 68.53325,3.0916 0.73299,1.5105 4.29571,7.5023 7.91717,13.3149 3.62146,5.8126 9.6836,15.6613 13.47143,21.886 3.78783,6.2248 9.41812,15.3549 12.51176,20.2893 3.09363,4.9344 5.62479,9.2616 5.62479,9.616 0,0.7286 14.82527,24.4822 16.82637,26.9598 0.71437,0.8845 1.29886,1.9423 1.29886,2.3506 0,0.7468 3.63701,6.7339 16.393,26.9854 4.67622,7.424 6.91086,12.3446 6.91086,15.2176 0,4.2172 -1.86738,11.6386 -4.0429,16.0674 -0.62465,1.2716 -1.13573,3.4832 -1.13573,4.9145 0,1.4314 -0.5826,2.9728 -1.29466,3.4254 -0.71207,0.4526 -1.29466,2.2501 -1.29466,3.9945 0,1.7443 -0.5826,3.5418 -1.29466,3.9944 -0.71206,0.4526 -1.29466,2.2502 -1.29466,3.9945 0,1.7444 -0.5826,3.5419 -1.29466,3.9945 -0.71206,0.4526 -1.29466,2.4652 -1.29466,4.4725 0,2.0073 -0.48129,4.2188 -1.06954,4.9145 -0.58825,0.6957 -1.83746,3.9612 -2.77601,7.25658 -4.3389,15.2347 -6.90199,23.4866 -7.95557,25.6132 -0.63001,1.2716 -1.14547,3.227 -1.14547,4.3454 0,1.1184 -0.51546,3.0738 -1.14547,4.3454 -1.08454,2.1891 -2.22193,5.8687 -9.15189,29.6076 -1.60336,5.4924 -3.43796,11.0266 -4.07688,12.2983 -0.63892,1.2716 -1.16167,3.227 -1.16167,4.3454 0,1.1183 -0.52582,3.0738 -1.16848,4.3454 -0.64266,1.2716 -1.90916,5.0083 -2.81443,8.3038 -0.90528,3.2954 -2.12726,6.5609 -2.7155,7.2566 -0.58825,0.6957 -1.06955,2.9072 -1.06955,4.9145 0,2.0073 -0.5826,4.0199 -1.29466,4.4725 -0.71206,0.4526 -1.29466,2.2501 -1.29466,3.9945 0,1.7443 -0.58259,3.5419 -1.29466,3.9945 -0.71206,0.4526 -1.29683,2.1356 -1.2995,3.7401 -0.003,1.6045 -1.15929,4.8646 -2.57028,7.2447 l -2.56545,4.3273 -24.94122,0.1284 c -13.71768,0.071 -28.14551,0.8196 -32.06185,1.6644 l -7.12063,1.5359 -0.37817,8.778 c -0.27127,6.2966 0.13587,9.2168 1.44018,10.3301 1.34844,1.1509 21.01922,1.4632 76.11574,1.2082 l 74.29739,-0.3439 0.37456,-10.1153 0.37455,-10.1153 -9.03923,-1.5352 c -4.97158,-0.8444 -18.65112,-1.5353 -30.39898,-1.5353 -14.21477,0 -21.65592,-0.4929 -22.24517,-1.4734 -0.87669,-1.4589 1.19436,-10.3598 3.44811,-14.8193 0.64267,-1.2716 1.16848,-3.2271 1.16848,-4.3454 0,-1.1184 0.52275,-3.0738 1.16167,-4.3454 0.63893,-1.2717 2.44656,-6.8059 4.01697,-12.2983 1.5704,-5.4924 3.37804,-11.0266 4.01696,-12.2982 0.63892,-1.2716 1.16167,-3.4831 1.16167,-4.9145 0,-1.4314 0.5826,-2.9728 1.29466,-3.4254 0.71207,-0.4526 1.29466,-2.5497 1.29466,-4.6602 0,-2.1105 0.5826,-4.2076 1.29466,-4.6602 0.71206,-0.4526 1.29466,-1.994 1.29466,-3.4254 0,-1.4314 0.52582,-3.6429 1.16848,-4.9145 0.64266,-1.2716 1.87426,-5.0083 2.73688,-8.3038 0.86263,-3.2954 2.01523,-7.19 2.56134,-8.6547 0.54612,-1.4646 2.28734,-7.1567 3.8694,-12.6491 1.58205,-5.4924 3.39922,-11.0266 4.03814,-12.2983 0.63892,-1.2716 1.16167,-3.4831 1.16167,-4.9145 0,-1.4313 0.5826,-2.9728 1.29466,-3.4254 0.71206,-0.4526 1.29466,-2.5497 1.29466,-4.6602 0,-2.1105 0.5826,-4.2076 1.29466,-4.6602 0.71206,-0.4526 1.29466,-1.99398 1.29466,-3.42538 0,-1.4313 0.53419,-3.6429 1.18708,-4.9145 0.6529,-1.2716 2.12349,-5.6075 3.26798,-9.6352 2.88679,-10.1594 3.87639,-11.6021 6.45087,-9.4047 1.12236,0.958 2.04066,2.5672 2.04066,3.576 0,1.0088 0.54334,1.8342 1.20742,1.8342 0.66408,0 1.57614,1.1948 2.0268,2.6551 0.45066,1.4603 1.52088,3.4076 2.37826,4.3273 1.28305,1.3764 8.55186,13.1179 14.46858,23.37148 0.71967,1.2472 3.48701,5.7245 6.14963,9.9496 2.66262,4.225 4.84113,8.2694 4.84113,8.9875 0,0.7181 0.48415,1.3057 1.07589,1.3057 0.59174,0 1.88689,1.6477 2.8781,3.6616 0.99122,2.0139 4.00265,7.0739 6.69207,11.2446 2.68942,4.1707 4.88986,8.1222 4.88986,8.7812 0,0.659 1.16519,2.2827 2.58931,3.6082 1.42413,1.3254 2.58932,2.9491 2.58932,3.6081 0,0.659 2.33039,4.7275 5.17864,9.041 2.84825,4.3136 5.17864,8.1814 5.17864,8.5951 0,0.4138 3.49558,6.1812 7.76795,12.8166 4.27238,6.6354 7.76796,12.3543 7.76796,12.7088 0,0.3544 2.33039,4.1737 5.17864,8.4873 2.84825,4.3135 5.19159,8.325 5.20742,8.9145 0.0158,0.5894 1.16807,2.5696 2.56053,4.4004 4.76998,6.2715 3.61313,7.707 -6.79696,8.4341 -27.26989,1.9047 -44.66046,3.4868 -47.30656,4.3038 -2.79843,0.864 -2.94347,1.4838 -2.58932,11.0652 l 0.37516,10.1499 121.44701,0.3397 c 82.2434,0.2301 122.25928,-0.1074 123.96358,-1.0454 2.0918,-1.1514 2.5166,-2.8304 2.5166,-9.9462 0,-7.328 -0.3907,-8.7761 -2.7126,-10.0541 -2.4591,-1.3535 -9.433,-2.0524 -51.01568,-5.113 -7.1206,-0.5241 -13.9386,-1.4236 -15.1511,-1.9988 -1.2125,-0.5753 -3.8943,-3.8387 -5.9596,-7.2522 -6.1717,-10.2007 -15.7871,-27.1363 -15.7871,-27.806 0,-0.3435 -1.097,-2.2149 -2.4377,-4.1588 -1.3408,-1.9438 -3.6712,-5.7811 -5.1787,-8.5273 -6.6653,-12.1422 -7.9733,-14.4527 -12.9792,-22.9271 -2.9137,-4.9324 -5.2976,-9.2482 -5.2976,-9.5907 0,-0.3424 -1.7478,-3.2352 -3.884,-6.4284 -2.1362,-3.1931 -3.884,-6.0859 -3.884,-6.4284 0,-0.3424 -2.3839,-4.6582 -5.2975,-9.5907 -2.9137,-4.9324 -6.40928,-10.9854 -7.76798,-13.451 -1.35871,-2.4656 -3.58079,-6.4979 -4.93795,-8.9607 -1.35717,-2.4628 -3.25061,-5.908 -4.20765,-7.65608 -0.95703,-1.748 -2.03136,-3.4779 -2.38739,-3.844 -0.35603,-0.3662 -1.43036,-2.096 -2.3874,-3.844 -0.95704,-1.7481 -2.79695,-5.1135 -4.0887,-7.4788 -1.29175,-2.3653 -4.73254,-8.3362 -7.64621,-13.2686 -2.91367,-4.9324 -5.29758,-9.2637 -5.29758,-9.6251 0,-0.3613 -1.09698,-2.2474 -2.43774,-4.1912 -1.34075,-1.9439 -3.59636,-5.6314 -5.01245,-8.1945 -1.41609,-2.5631 -5.63726,-10.0528 -9.38038,-16.6437 -3.74313,-6.5908 -7.90701,-13.9689 -9.25308,-16.3957 -1.34608,-2.4268 -3.41173,-5.9259 -4.59034,-7.7759 -3.7025,-5.8114 -6.91315,-11.6906 -7.70488,-14.1088 -0.4196,-1.2815 -1.27755,-2.3301 -1.90657,-2.3301 -0.62901,0 -1.14366,-1.4979 -1.14366,-3.3287 0,-1.8308 0.72825,-3.3399 1.61833,-3.3535 0.89007,-0.014 47.84983,-0.035 104.35503,-0.048 75.98188,-0.017 103.20718,0.3786 104.54368,1.5193 0.9938,0.8483 1.8158,2.8172 1.8265,4.3752 0.021,3.1187 2.8692,12.2392 4.2719,13.6818 0.488,0.5019 0.8872,2.4904 0.8872,4.4188 0,1.9285 0.4813,4.0755 1.0696,4.7712 0.5882,0.6957 1.8374,3.9612 2.776,7.2566 4.3389,15.2347 6.902,23.4866 7.9556,25.6132 0.63,1.2716 1.1454,3.4831 1.1454,4.9145 0,1.4313 0.5826,2.9728 1.2947,3.4254 0.7121,0.4526 1.2947,2.5497 1.2947,4.6602 0,2.1105 0.5826,4.2076 1.2946,4.6602 0.7121,0.4526 1.2947,2.2501 1.2947,3.9945 0,1.7443 0.5826,3.5418 1.2946,3.9944 0.7121,0.4526 1.2947,2.5497 1.2947,4.6603 0,2.1105 0.5826,4.2076 1.2947,4.6602 0.712,0.4526 1.2946,1.994 1.2946,3.4254 0,1.4313 0.5228,3.6429 1.1617,4.9145 0.6389,1.2716 2.4465,6.8058 4.017,12.29818 1.5704,5.4924 3.378,11.0267 4.0169,12.2983 0.6389,1.2716 1.1617,3.4831 1.1617,4.9145 0,1.4313 0.5826,2.9728 1.2946,3.4254 0.7121,0.4526 1.2947,2.5497 1.2947,4.6602 0,2.1105 0.5826,4.2076 1.2947,4.6602 0.712,0.4526 1.2946,2.2501 1.2946,3.9945 0,1.7443 0.5826,3.5419 1.2947,3.9945 0.712,0.4526 1.2946,2.5497 1.2946,4.6602 0,2.1105 0.5826,4.2076 1.2947,4.6602 0.7121,0.4526 1.2947,1.994 1.2947,3.4254 0,1.4313 0.5227,3.6429 1.1616,4.9145 0.639,1.2716 2.4466,6.8058 4.017,12.2982 1.5704,5.4924 3.378,11.0266 4.017,12.2983 0.6389,1.2716 1.1616,3.4831 1.1616,4.9145 0,1.4313 0.5826,2.9727 1.2947,3.4253 0.7121,0.4526 1.2947,2.5497 1.2947,4.6603 0,2.1105 0.5826,4.2076 1.2946,4.6602 0.7121,0.4526 1.2947,1.994 1.2947,3.4254 0,1.4313 0.5258,3.6429 1.1685,4.9145 0.6426,1.2716 1.8646,5.0083 2.7155,8.3037 0.8508,3.2955 2.0728,7.0322 2.7155,8.3038 0.6426,1.2716 1.1684,3.7526 1.1684,5.5133 0,3.5663 3.0537,3.0561 -35.6031,5.9494 -9.2568,0.6929 -18.4327,1.9066 -20.3909,2.6971 -3.3614,1.3571 -3.5603,1.9079 -3.5603,9.8587 0,4.7746 0.6728,9.1133 1.5536,10.0192 1.1861,1.2198 30.0278,1.5978 121.9197,1.5978 -2.9532,21.243 235.5594,-18.7376 71.0785,-26.1994 -12.7791,-0.5797 -13.3323,-0.7326 -15.8596,-4.3827 -1.4402,-2.0801 -2.6185,-5.0023 -2.6185,-6.4938 0,-1.4915 -0.5826,-3.082 -1.2947,-3.5346 -0.7121,-0.4526 -1.2947,-2.5497 -1.2947,-4.6603 0,-2.1105 -0.5825,-4.2076 -1.2946,-4.6602 -0.7121,-0.4526 -1.2947,-1.994 -1.2947,-3.4254 0,-1.4313 -0.5258,-3.6428 -1.1684,-4.9145 -0.6427,-1.2716 -1.8647,-5.0083 -2.7155,-8.3037 -0.8509,-3.2955 -2.0729,-7.0322 -2.7156,-8.3038 -0.6426,-1.2716 -1.1684,-3.227 -1.1684,-4.3454 0,-1.1184 -0.5258,-3.0738 -1.1685,-4.3454 -0.6427,-1.2716 -1.8646,-5.0083 -2.7155,-8.3038 -0.8509,-3.2954 -2.0728,-7.0321 -2.7155,-8.3037 -0.6427,-1.2717 -1.1685,-3.2271 -1.1685,-4.3454 0,-1.1184 -0.5227,-3.0738 -1.1617,-4.3455 -0.6389,-1.2716 -2.4465,-6.8058 -4.0169,-12.2982 -1.5704,-5.4924 -3.3781,-11.0266 -4.017,-12.2982 -0.6389,-1.2716 -1.1617,-3.2271 -1.1617,-4.3454 0,-1.1184 -0.5258,-3.0738 -1.1684,-4.3454 -0.6427,-1.2717 -1.8647,-5.0084 -2.7155,-8.3038 -0.8509,-3.2954 -2.0729,-7.0321 -2.7155,-8.3038 -0.6427,-1.2716 -1.1685,-3.22698 -1.1685,-4.34538 0,-1.1183 -0.5258,-3.0738 -1.1685,-4.3454 -0.6427,-1.2716 -1.8646,-5.0083 -2.7155,-8.3038 -0.8509,-3.2954 -2.0728,-7.0321 -2.7155,-8.3037 -0.6427,-1.2717 -1.1685,-3.2271 -1.1685,-4.3455 0,-1.1183 -0.5258,-3.0737 -1.1684,-4.3454 -0.6427,-1.2716 -1.8647,-5.0083 -2.7155,-8.3037 -0.8509,-3.2955 -2.0729,-7.0322 -2.7155,-8.3038 -0.6427,-1.2716 -1.1685,-3.4831 -1.1685,-4.9145 0,-1.4314 -0.5826,-2.9728 -1.2947,-3.4254 -0.712,-0.4526 -1.2946,-1.994 -1.2946,-3.4253 0,-1.4314 -0.5259,-3.6429 -1.1685,-4.9146 -0.6427,-1.2716 -1.8743,-5.0083 -2.7369,-8.3037 -0.8626,-3.2955 -2.0152,-7.1901 -2.5613,-8.6547 -0.5462,-1.4647 -2.2969,-7.1568 -3.8906,-12.6492 -1.5937,-5.4924 -3.3365,-11.1845 -3.873,-12.6492 -0.9289,-2.5364 -3.3431,-10.3781 -12.9127,-41.9419 -2.3313,-7.6894 -4.6852,-15.179 -5.2309,-16.6437 -0.5457,-1.4646 -1.6979,-5.3592 -2.5606,-8.6547 -0.8626,-3.2954 -2.0942,-7.0321 -2.7368,-8.3037 -0.6427,-1.2717 -1.1685,-3.2271 -1.1685,-4.3455 0,-1.1183 -0.5258,-3.0737 -1.1685,-4.3454 -0.6427,-1.2716 -1.8646,-5.0083 -2.7155,-8.3037 -0.8509,-3.2955 -2.0728,-7.0322 -2.7155,-8.3038 -0.6427,-1.2716 -1.1685,-3.227 -1.1685,-4.3454 0,-1.1184 -0.5227,-3.0738 -1.1617,-4.3454 -0.6389,-1.2716 -2.456,-6.8058 -4.0381,-12.2982 -1.582,-5.4924 -3.32,-11.1846 -3.862,-12.6492 -0.5421,-1.4647 -2.8728,-8.9543 -5.1794,-16.6437 -2.3066,-7.6893 -4.6373,-15.179 -5.1794,-16.6436 -0.5421,-1.4646 -2.28,-7.1568 -3.8621,-12.6492 -1.582,-5.4924 -3.3992,-11.0266 -4.0381,-12.2982 -0.6389,-1.2716 -1.1617,-3.2271 -1.1617,-4.3454 0,-1.1184 -0.5258,-3.0738 -1.1685,-4.3454 -0.6426,-1.2717 -1.8646,-5.0084 -2.7155,-8.3038 -0.8508,-3.2954 -2.0728,-7.0321 -2.7155,-8.3038 -0.6426,-1.2716 -1.1684,-3.4831 -1.1684,-4.9145 0,-1.4313 -0.5826,-2.9727 -1.2947,-3.4253 -0.7121,-0.4526 -1.2947,-2.5497 -1.2947,-4.6603 0,-2.1105 -0.5826,-4.2076 -1.2946,-4.6602 -0.7121,-0.4526 -1.2947,-2.2501 -1.2947,-3.9945 0,-1.7443 -0.5826,-3.5418 -1.2946,-3.9944 -0.7121,-0.4526 -1.2947,-1.9941 -1.2947,-3.4254 0,-1.4314 -0.5258,-3.6429 -1.1685,-4.9145 -0.6426,-1.2716 -1.8742,-5.0083 -2.7369,-8.3038 -0.8626,-3.2954 -2.0148,-7.19 -2.5605,-8.6547 -0.5458,-1.4646 -2.8794,-8.9543 -5.186,-16.6436 -2.3066,-7.6894 -4.6403,-15.179 -5.186,-16.6437 -0.5457,-1.4646 -1.698,-5.3592 -2.5606,-8.6547 -0.8626,-3.2954 -2.0942,-7.0321 -2.7369,-8.3037 -0.6426,-1.2716 -1.1685,-3.2271 -1.1685,-4.3454 0,-1.1184 -0.5227,-3.0738 -1.1616,-4.3455 -0.639,-1.2716 -2.4466,-6.8058 -4.017,-12.2982 -1.5704,-5.4924 -3.378,-11.0266 -4.017,-12.2982 -0.6389,-1.2716 -1.1616,-3.2271 -1.1616,-4.3454 0,-1.1184 -0.5258,-3.0738 -1.1685,-4.3454 -0.6427,-1.2717 -1.8646,-5.0084 -2.7155,-8.3038 -0.8509,-3.2954 -2.0729,-7.0321 -2.7155,-8.3038 -0.6427,-1.2716 -1.1685,-3.227 -1.1685,-4.3454 0,-1.1183 -0.5258,-3.0738 -1.1685,-4.3454 -0.6426,-1.2716 -1.8646,-5.0083 -2.7155,-8.3037 -0.8508,-3.2955 -2.0728,-7.0322 -2.7155,-8.3038 -0.6426,-1.2716 -1.1684,-3.2271 -1.1684,-4.3454 0,-1.1184 -0.5228,-3.0738 -1.1617,-4.3454 -0.6389,-1.2717 -2.4561,-6.8059 -4.0382,-12.2983 -1.582,-5.4924 -3.3203,-11.1845 -3.8628,-12.6491 -0.5424,-1.4647 -2.3279,-7.1568 -3.9676,-12.6492 -4.8219,-16.1519 1.5068,-14.6741 -61.93688,-14.4622 -30.3303,0.1013 -64.7589,0.5507 -76.50793,0.9986 l -21.36188,0.8144 v 10.652 10.6519 l 13.32852,0.3801 c 14.34131,0.409 16.19836,1.4175 13.56342,7.3658 -0.70801,1.5983 -1.98913,5.3027 -2.84692,8.232 -0.8578,2.9293 -2.03732,6.5243 -2.62115,7.9889 -0.58383,1.4647 -1.77692,5.3593 -2.65131,8.6547 -0.87439,3.2955 -2.04396,7.1901 -2.59904,8.6547 -0.55509,1.4647 -2.60017,7.9171 -4.54462,14.3388 -3.85289,12.7244 -6.01909,16.1141 -24.51541,38.3621 -13.66231,16.4334 -32.09672,39.1588 -41.9198,51.6775 -3.79715,4.8391 -8.74972,10.8955 -11.00571,13.4587 -2.25598,2.5631 -6.71497,7.9556 -9.90885,11.9834 -3.19389,4.0277 -6.10637,7.6228 -6.47219,7.9889 -0.36582,0.3662 -2.87703,3.497 -5.58047,6.9573 -2.70343,3.4604 -5.63475,7.0554 -6.51404,7.989 -0.87929,0.9335 -6.32378,7.6891 -12.09886,15.0123 -5.77508,7.3232 -11.58271,14.5132 -12.90584,15.9779 -1.32314,1.4646 -5.01937,5.9584 -8.21387,9.9862 -3.19449,4.0277 -6.14124,7.6228 -6.54834,7.9889 -0.40709,0.3662 -1.64383,2.0267 -2.7483,3.69 -1.10448,1.6633 -3.98369,5.2629 -6.39825,7.9991 -4.9383,5.5961 -9.74297,11.4111 -17.33672,20.9823 -8.64265,10.8933 -24.49641,30.532 -25.21942,31.2402 -0.37378,0.3662 -3.97785,4.86 -8.00904,9.9862 -4.03119,5.1263 -8.85933,10.7953 -10.7292,12.5979 l -3.39977,3.2774 -66.07324,0.1895 c -53.15432,0.1525 -66.407,-0.1537 -67.78026,-1.5661 -1.39241,-1.432 -1.73487,-31.3973 -1.85804,-162.5802 -0.0958,-102.0647 0.30845,-161.5543 1.10651,-162.8218 0.95688,-1.5198 5.37039,-2.2323 18.46174,-2.9805 35.98822,-2.0569 43.78887,-2.9238 45.06847,-5.0084 1.78254,-2.9041 1.53901,-15.0844 -0.35484,-17.7481 -1.50925,-2.1227 -9.69178,-2.2763 -119.25319,-2.2384 -64.69802,0.022 -118.15031,0.3696 -118.78288,0.7717 -0.63257,0.4021 -1.15012,5.178 -1.15012,10.6133 0,11.5382 -1.37558,10.6634 18.77255,11.9375 7.12063,0.4503 19.64646,1.2424 27.83518,1.7603 8.18872,0.5179 15.61683,1.416 16.5069,1.9957 2.37936,1.5497 2.37936,673.66878 0,675.66008 -0.89007,0.7449 -6.27909,1.6894 -11.97559,2.099 -5.6965,0.4095 -18.51363,1.3045 -28.48251,1.9888 -9.96887,0.6843 -19.14477,1.6748 -20.39088,2.201 -1.86293,0.7866 -2.26565,2.667 -2.26565,10.5785 0,5.292 0.38839,10.0213 0.8631,10.5095 0.47471,0.4882 54.05311,0.8877 119.0631,0.8877 115.53585,0 118.23021,-0.058 119.54021,-2.5755 z M 815.36325,860.74172 c -1.32914,-0.9569 -2.41662,-2.2438 -2.41662,-2.8598 0,-0.6159 -2.43922,-5.2255 -5.4205,-10.2435 -10.38223,-17.4751 -10.72774,-19.1146 -6.05789,-28.7451 0.61661,-1.2716 1.12112,-3.2271 1.12112,-4.3454 0,-1.1184 0.51546,-3.0738 1.14547,-4.3454 1.08454,-2.1891 2.22193,-5.8687 9.15189,-29.6077 1.60336,-5.4924 3.43795,-11.0266 4.07687,-12.2982 0.63892,-1.2716 1.16168,-3.2271 1.16168,-4.3454 0,-1.1184 0.52581,-3.0738 1.16847,-4.3454 0.64267,-1.2717 1.86464,-5.0083 2.71551,-8.3038 0.85086,-3.2954 2.07284,-7.0321 2.7155,-8.3037 0.64266,-1.2717 1.16847,-3.4832 1.16847,-4.9146 0,-1.4313 0.5826,-2.9727 1.29466,-3.4253 0.71207,-0.4526 1.29466,-2.2501 1.29466,-3.9945 0,-1.7444 0.5826,-3.5419 1.29466,-3.9945 0.71206,-0.4526 1.29466,-2.5497 1.29466,-4.6602 0,-2.1105 0.5826,-4.2076 1.29466,-4.6602 0.71206,-0.4526 1.29466,-2.2501 1.29466,-3.9945 0,-1.7444 0.5826,-3.5419 1.29466,-3.9945 0.71206,-0.4526 1.29466,-2.5497 1.29466,-4.6602 0,-2.1105 0.5826,-4.2076 1.29466,-4.6602 0.71206,-0.4526 1.29466,-1.994 1.29466,-3.4254 0,-1.4314 0.52275,-3.6429 1.16167,-4.9145 0.63892,-1.2716 2.44656,-6.8058 4.01696,-12.2982 1.57041,-5.4924 3.37804,-11.0266 4.01697,-12.2983 0.63892,-1.2716 1.16167,-3.227 1.16167,-4.3454 0,-1.1183 0.52582,-3.0738 1.16848,-4.3454 0.64266,-1.2716 1.87426,-5.0083 2.73688,-8.3038 0.86263,-3.2954 2.01523,-7.19 2.56134,-8.6547 0.54612,-1.4646 2.28734,-7.1567 3.8694,-12.6491 1.58205,-5.4924 3.39922,-11.0266 4.03814,-12.2983 0.63892,-1.2716 1.16167,-3.227 1.16167,-4.3454 0,-1.1183 0.51546,-3.0738 1.14547,-4.3454 1.08454,-2.1891 2.22193,-5.8687 9.15189,-29.6076 1.60336,-5.4924 3.43796,-11.0266 4.07688,-12.2982 0.63892,-1.2717 1.16167,-3.2271 1.16167,-4.3455 0,-1.1183 0.52582,-3.0737 1.16848,-4.3454 0.64266,-1.2716 1.87426,-5.0083 2.73689,-8.3037 3.33801,-12.752 7.56808,-21.5313 13.7932,-28.6271 2.56986,-2.9293 6.89528,-8.3218 9.61204,-11.9834 10.7109,-14.4361 12.365,-16.0298 14.6301,-14.0965 1.1427,0.9753 2.0777,2.9065 2.0777,4.2914 0,1.3849 0.5258,3.5584 1.1685,4.83 0.6426,1.2717 1.8918,5.0084 2.776,8.3038 3.0395,11.329 6.7129,23.3047 7.8566,25.6132 0.63,1.2716 1.1455,3.4831 1.1455,4.9145 0,1.4313 0.5826,2.9727 1.2947,3.4253 0.712,0.4526 1.2946,2.5497 1.2946,4.6603 0,2.1105 0.5826,4.2076 1.2947,4.6602 0.712,0.4526 1.2946,2.2501 1.2946,3.9945 0,1.7443 0.5826,3.5418 1.2947,3.9944 0.7121,0.4526 1.2947,2.4653 1.2947,4.4725 0,2.0073 0.4812,4.2188 1.0695,4.9146 0.5882,0.6957 1.8374,3.9611 2.776,7.2566 4.3389,15.2346 6.902,23.4865 7.9556,25.6131 0.63,1.2717 1.1454,3.4832 1.1454,4.9145 0,1.4314 0.5826,2.9728 1.2947,3.4254 0.7121,0.4526 1.3034,2.1357 1.3142,3.7402 0.021,3.1854 2.8513,12.3053 4.2718,13.7663 0.488,0.5019 0.8873,2.5748 0.8873,4.6065 0,2.0317 0.5826,4.0643 1.2947,4.5169 0.712,0.4526 1.2946,1.994 1.2946,3.4253 0,1.4314 0.5228,3.6429 1.1617,4.9145 0.6389,1.2717 2.4465,6.8059 4.017,12.2983 1.5704,5.4924 3.378,11.0266 4.0169,12.2982 0.6389,1.2716 1.1617,3.4832 1.1617,4.9145 0,1.4314 0.5826,2.9728 1.2947,3.4254 0.712,0.4526 1.2946,2.4852 1.2946,4.5169 0,2.0317 0.3993,4.1046 0.8873,4.6065 1.4206,1.461 4.2506,10.5808 4.2719,13.7662 0.011,1.6045 0.602,3.2876 1.3141,3.7402 0.7121,0.4526 1.2947,1.994 1.2947,3.4254 0,1.4314 0.5258,3.6429 1.1684,4.9145 0.6427,1.2716 1.8743,5.0083 2.7369,8.3038 0.8627,3.2954 2.0153,7.19 2.5614,8.6547 0.5461,1.4646 2.2873,7.1567 3.8694,12.6491 1.58198,5.4924 3.39918,11.0267 4.03808,12.2983 0.6389,1.2716 1.1617,3.4831 1.1617,4.9145 0,1.4313 0.5826,2.9728 1.2946,3.4254 0.7121,0.4526 1.2947,2.4652 1.2947,4.4725 0,2.0072 0.4813,4.2188 1.0695,4.9145 0.9747,1.1527 1.8223,3.7889 5.7582,17.9085 0.7144,2.5632 1.7315,5.8586 2.2601,7.3232 0.5286,1.4647 2.2555,7.1568 3.8376,12.6492 1.582,5.4924 3.3992,11.0266 4.0381,12.2983 0.6389,1.2716 1.1617,3.4831 1.1617,4.9145 0,1.4313 0.5826,2.9727 1.2946,3.4253 0.7121,0.4526 1.2947,2.5497 1.2947,4.6603 0,2.1105 0.5826,4.2076 1.2947,4.6602 0.712,0.4526 1.2946,2.2501 1.2946,3.9945 0,1.7443 0.5154,3.4991 1.1454,3.8996 1.6568,1.053 2.5267,8.727 1.0927,9.6385 -0.6678,0.4245 -49.29518,0.8475 -108.06088,0.94 -86.06094,0.1355 -107.31678,-0.1702 -109.26327,-1.5716 z m -43.29556,-75.1538 c -4.77868,-8.2386 -9.69557,-16.7768 -10.92644,-18.9737 -1.23086,-2.197 -5.30048,-9.3871 -9.0436,-15.9779 -3.74313,-6.5909 -7.95099,-14.0806 -9.35081,-16.6437 -1.39983,-2.5631 -3.07283,-5.2294 -3.71779,-5.9251 -2.3606,-2.5463 -1.03754,-6.2153 4.97698,-13.8017 14.33261,-18.0783 28.26384,-35.7064 30.08534,-38.069 1.07661,-1.3963 3.73896,-4.6918 5.91634,-7.3232 2.17737,-2.6313 8.87563,-11.0756 14.885,-18.765 6.00938,-7.6893 11.22706,-14.2802 11.59485,-14.6464 0.36779,-0.3661 3.27437,-3.9612 6.45907,-7.9889 3.18471,-4.0278 6.10386,-7.6228 6.48701,-7.989 0.38315,-0.3661 6.40712,-7.97 13.3866,-16.8976 14.86141,-19.0093 16.37685,-20.5468 16.37685,-16.6153 0,1.5198 -0.52192,4.1397 -1.15983,5.8218 -0.63791,1.6822 -1.85989,5.7548 -2.71551,9.0502 -0.85561,3.2955 -2.08148,7.0322 -2.72414,8.3038 -0.64266,1.2716 -1.16847,3.2271 -1.16847,4.3454 0,1.1184 -0.52276,3.0738 -1.16168,4.3454 -0.63892,1.2717 -2.45608,6.8059 -4.03814,12.2983 -1.58205,5.4924 -3.32031,11.1845 -3.8628,12.6491 -0.54248,1.4647 -2.29027,7.1568 -3.88398,12.6492 -1.5937,5.4924 -3.34446,11.1845 -3.89057,12.6492 -0.54611,1.4646 -1.69871,5.3592 -2.56134,8.6547 -0.86262,3.2954 -2.09422,7.0321 -2.73689,8.3037 -0.64266,1.2717 -1.16847,3.2271 -1.16847,4.3454 0,1.1184 -0.52276,3.0738 -1.16168,4.3455 -0.63892,1.2716 -2.45608,6.8058 -4.03814,12.2982 -1.58205,5.4924 -3.32031,11.1845 -3.8628,12.6492 -0.54248,1.4646 -2.28074,7.1567 -3.8628,12.6491 -1.58205,5.4924 -3.39921,11.0266 -4.03814,12.2983 -0.63892,1.2716 -1.16167,3.4831 -1.16167,4.9145 0,1.4313 -0.5826,2.9728 -1.29466,3.4254 -0.71206,0.4526 -1.29466,1.994 -1.29466,3.4253 0,1.4314 -0.52581,3.6429 -1.16848,4.9145 -0.64266,1.2717 -1.86463,5.0084 -2.7155,8.3038 -0.85086,3.2954 -2.07284,7.0321 -2.7155,8.3038 -0.64266,1.2716 -1.16848,3.4831 -1.16848,4.9145 0,1.4313 -0.58259,2.9728 -1.29465,3.4253 -0.71207,0.4526 -1.29466,1.9941 -1.29466,3.4254 0,1.4314 -0.54007,3.6429 -1.20016,4.9145 -0.66008,1.2717 -1.51569,3.3606 -1.90135,4.6422 -0.38566,1.2816 -1.26248,2.3301 -1.94848,2.3301 -0.686,0 -5.1571,-6.7407 -9.93577,-14.9793 z m 136.68373,-316.4526 c 0,-2.2585 2.9507,-8.0985 4.0918,-8.0985 2.2612,0 1.0198,6.6007 -1.5025,7.989 -1.6336,0.8991 -2.5893,0.9396 -2.5893,0.1095 z"
       id="path1"
       sodipodi:nodetypes="sssssssssssssssssssssssssssssssssssssscsccscssscccssssssssssssssssssssssssssssssssssssssssssssssssscsssssssssssssssssssssssssssssssccscsssssssssssssssssssssssssssssssssssssssssssssssssssssssssssssssssssssssssssssssssssssssssssssssssssssssssssssssssssssssssssssssssssssscccsssssssssssssssssssssssscssssssscsssssssssssssssssssssssssssssssssssssssssssssssssssssssssscssssssssssssscssssssssssscssssssssssssssssssssssssssssssssssssssssssssssssssssssssssssssssssssssss" />
  </g>
</svg>
